<svg fill="none" viewBox="0 0 24 24" xmlns="http://www.w3.org/2000/svg"><g stroke="#000" stroke-linecap="round" stroke-linejoin="round" stroke-width="1.5"><path d="m8.25 23.25h-6.75c-.41421 0-.75-.3358-.75-.75v-5.25"/><path d="m8.25 17.25h-7.5v-6"/><path d="m12.75 11.25h-12v-5.25c0-.41421.33579-.75.75-.75h10.5c.4142 0 .75.33579.75.75z"/><path d="m1.5 5.25v-2.25c0-.41421.33579-.75.75-.75h2.25c.41421 0 .75.33579.75.75v2.25"/><path d="m8.25 5.25v-2.25c0-.41421.33579-.75.75-.75h2.25c.4142 0 .75.33579.75.75v2.25"/><path d="m12 17.25v-2.25c0-.4142.3358-.75.75-.75h2.25c.4142 0 .75.3358.75.75v2.25"/><path d="m18.75 17.25v-2.25c0-.4142.3358-.75.75-.75h2.25c.4142 0 .75.3358.75.75v2.25"/><path clip-rule="evenodd" d="m11.25 18c0-.4142.3358-.75.75-.75h10.5c.4142 0 .75.3358.75.75v4.5c0 .4142-.3358.75-.75.75h-10.5c-.4142 0-.75-.3358-.75-.75z" fill-rule="evenodd"/></g></svg>