<svg fill="none" height="24" viewBox="0 0 133 24" width="133" xmlns="http://www.w3.org/2000/svg" xmlns:xlink="http://www.w3.org/1999/xlink"><clipPath id="a"><path d="m1.125 0h27.8131v24h-27.8131z"/></clipPath><g fill="#130b43"><g clip-path="url(#a)"><path d="m16.7711 15.3596c0 1.0164-.8799 1.6516-1.6593 1.6516s-1.7145-.3158-1.7145-1.6516v-.6496h-1.0267v.6496c0 1.4793 1.2302 2.6825 2.7412 2.6825s2.7411-1.2032 2.7411-2.6825v-.6496h-1.0818z"/><path d="m8.14791 12.2226c0-.9706.84181-1.7599 1.87609-1.7599 1.0336 0 1.8754.79 1.8754 1.7599h1.1817c0-1.5826-1.3707-2.86957-3.0571-2.86957-1.68641 0-3.05781 1.28697-3.05781 2.86957z"/><path d="m17.8859 12.2226c0-.9706.8419-1.7599 1.8754-1.7599 1.0343 0 1.8761.79 1.8761 1.7599h1.1817c0-1.5826-1.3714-2.86957-3.0578-2.86957s-3.0571 1.28697-3.0571 2.86957z"/><g clip-rule="evenodd" fill-rule="evenodd"><path d="m24.7258 8.45805v-3.81434c0-1.28543-.1562-2.1773-.4688-2.67563-.3125-.49834-.9632-.88257-1.9521-1.152691-.2986-.083832-.4478-.218893-.4478-.405187 0-.251497.3358-.377243 1.0075-.377243h1.0216c1.1102 0 1.9522.344638 2.5259 1.033921.5738.68929.8606 1.69526.8606 3.01795v4.02392c0 .93147.1003 1.64869.3009 2.15165.2006.503.5714.9734 1.1125 1.4112.1586.1304.2379.2375.2379.3214 0 .0838-.0793.1909-.2379.3213-.5504.4471-.9236.9198-1.1195 1.4182-.1959.4983-.2939 1.2132-.2939 2.1447v4.0099c0 1.332-.2892 2.3426-.8676 3.0319s-1.418 1.034-2.5189 1.034h-1.0216c-.4385 0-.716-.021-.8326-.0629s-.1749-.1467-.1749-.3144c0-.2328.1539-.3865.4618-.4611l.5597-.1257c1.2315-.2794 1.8472-1.495 1.8472-3.6467v-3.8143c0-1.4438.3499-2.4638 1.0496-3.0599l.2659-.2235c.1306-.1118.1959-.1957.1959-.2515 0-.0652-.0653-.1491-.1959-.2515l-.2659-.2236c-.6997-.5961-1.0496-1.61607-1.0496-3.05985z"/><path d="m5.32324 8.42509v-3.81434c0-1.28543.15627-2.1773.4688-2.67563.31254-.49834.96325-.88256 1.95217-1.15269.29854-.083832.44781-.218893.44781-.405187 0-.251497-.33586-.377243-1.00757-.377243h-1.02157c-1.11019 0-1.95216.344638-2.52592 1.03393-.57375.68928-.86063 1.69525-.86063 3.01794v4.02393c0 .93146-.10029 1.64868-.30087 2.1517-.20058.503-.57142.9734-1.11252 1.4111-.1586.1305-.2379.2376-.2379.3214s.0793.191.2379.3214c.55043.4471.9236.9198 1.11952 1.4181s.29387 1.2132.29387 2.1447v4.01c0 1.332.28921 2.3426.86763 3.0319s1.41806 1.0339 2.51892 1.0339h1.02157c.43848 0 .71602-.021.83264-.0629s.17493-.1467.17493-.3143c0-.2329-.15394-.3866-.46181-.4611l-.55976-.1258c-1.23148-.2794-1.84721-1.495-1.84721-3.6466v-3.8144c0-1.4438-.34984-2.4637-1.04955-3.0599l-.26588-.2235c-.13062-.1118-.19592-.1956-.19592-.2515 0-.0652.0653-.149.19592-.2515l.26588-.2235c.69971-.5962 1.04955-1.61613 1.04955-3.05991z"/></g></g><path clip-rule="evenodd" d="m94.6542 5.47101c0 1.31401.7425 1.97102 2.2274 1.97102 1.3199 0 1.9799-.65701 1.9799-1.97102s-.66-1.97101-1.9799-1.97101c-1.4849 0-2.2274.657-2.2274 1.97101zm-29.42 10.03249c1.2668 1.9526 3.6778 2.278 7.2331.9763 1.247 5.1254-11.2237 5.6136-11.2237-2.1966.4863-7.0193 6.7342-7.0193 9.2283-5.61355 2.8578 1.45905 3.2424 5.12545.7483 6.34575-.7583.4109-2.7536.5737-5.986.4881zm0-2.6847c.7483-3.17288 3.7412-1.9525 3.7412-.7322 0 .0125.0007.0263.0014.0411.0131.2754.0438.9227-3.7426.6911zm16.9502-1.6312c-1.7304-.2406-2.7337.0083-3.0102.7467-.2764.7384-.36 3.3934-.2508 7.9649-1.8545.3023-3.0251-.0296-3.5119-.9956-.4867-.966-.654-3.2891-.5017-6.9693.1673-1.99123 1.0034-3.23575 2.5085-3.73356 1.0135-.33522 3.4259-.52137 4.5153.49781.3522.32955.4358 1.15923.2508 2.48905zm18.4006 8.4608c-1.7322 1.1777-4.3864.4305-5.0315-.4949-.8399-1.2048-1.0915-4.6691-.7548-10.39309 1.802-.2072 2.976-.04223 3.5221.49491.698.6866.6965 3.59528.6955 5.50598v.0001.0001c-.0005.8437-.0008 1.4928.0592 1.67.2564.7566.9275 1.004 2.0125.7424.013 1.4127-.154 2.2375-.503 2.4745zm-13.6234-5.6367c0-3.4092 3.9392-3.4092 5.9088-1.9481 0-.0542.004-.1282.0088-.2182.0612-1.136.26-4.82969-5.6714-3.69748-2.462.73314-4.1854 3.42138-4.1854 5.87528 0 2.9224 1.4772 4.8775 4.1854 5.855 6.6474.9775 5.6626-3.9184 5.6626-3.9184-1.7234 1.2176-5.9088 1.4611-5.9088-1.9481zm-38.0296-5.78295c3.5913-.37471 4.7155 1.55221 5.3782 2.68815.2004.3436.3586.6148.5301.7281 0 0 1.7233-1.70814 1.9694-3.41625 3.9389-.16267 3.9389 1.87075 0 6.10035 1.4771 2.2775 2.7901 3.4976 3.9389 3.6603-.2462 1.9521-2.041 2.4097-3.6927 1.7081-1.7232-.7321-2.9541-3.1722-2.9541-3.1722-.9847 0-1.9695 3.1722-1.9695 3.4162-4.2671.1627-4.3491-1.9521-.2461-6.3444-1.9695-2.2775-2.9542-4.06693-2.9542-5.36835zm-1.7083 8.25105c-3.5553 1.3017-5.9663.9763-7.2331-.9763 3.2324.0856 5.2277-.0772 5.986-.4881 2.4941-1.2203 2.1095-4.8867-.7483-6.34575-2.4941-1.40575-8.742-1.40575-9.2283 5.61355 0 7.8102 12.4707 7.322 11.2237 2.1966zm-3.4918-4.3932c0-1.2203-2.993-2.44068-3.7413.7322 3.7864.2316 3.7557-.4157 3.7426-.6911-.0007-.0149-.0013-.0286-.0013-.0411zm67.9941-.1267c1.223-5.44604-8.322-4.95094-9.301-.9902-.638 3.8747 1.95 4.2748 3.828 4.565 1.002.1548 1.801.2783 1.801.881 0 1.7329-4.16.7427-5.384 0-1.468 4.951 7.587 5.4461 9.056 1.2378.624-1.9999.045-3.5039-1.224-4.2083-.767-.4257-1.582-.5203-2.314-.6053-.906-.1051-1.686-.1956-2.092-.88-.489-.9902 2.448-1.7328 5.63 0zm6.362 4.9505c.052 1.0188.108 2.1163.108 3.2419-4.35.6574-4.294-1.9661-4.219-5.4907.01-.4772.021-.9709.021-1.4752 0-5.7221 7.162-6.71724 9.384-3.23425 2.223-3.2342 9.138-2.98542 9.138 4.14205v6.0581c-4.112.5021-4.199-1.4927-4.199-3.9805 0-.3703.003-.718.006-1.0438.022-2.7397.031-3.9319-1.734-3.9319-1.443.1816-1.437 1.6428-1.425 4.776.004 1.1583.01 2.5451-.057 4.1802-3.704.4976-3.704-1.2439-3.704-2.9854 0-.3521.003-.7019.007-1.0452.029-2.6556.054-4.9256-1.736-4.9256-1.882 0-1.756 2.4548-1.59 5.7143z" fill-rule="evenodd"/></g></svg>