<svg fill="none" height="64" viewBox="0 0 64 64" width="64" xmlns="http://www.w3.org/2000/svg" xmlns:xlink="http://www.w3.org/1999/xlink"><linearGradient id="a"><stop offset="0" stop-color="#20f"/><stop offset="1" stop-color="#9e00ff"/></linearGradient><linearGradient id="b" gradientUnits="userSpaceOnUse" x1="32.2384" x2="32.2384" xlink:href="#a" y1="37.3815" y2="44.4901"/><linearGradient id="c" gradientUnits="userSpaceOnUse" x1="21.3839" x2="21.3839" xlink:href="#a" y1="25.953" y2="32.0748"/><linearGradient id="d" gradientUnits="userSpaceOnUse" x1="42.1578" x2="42.1578" xlink:href="#a" y1="25.953" y2="32.0748"/><linearGradient id="e" gradientUnits="userSpaceOnUse" x1="54.1665" x2="54.1665" xlink:href="#a" y1="6.07019" y2="57.0995"/><linearGradient id="f" gradientUnits="userSpaceOnUse" x1="9.93797" x2="9.93797" xlink:href="#a" y1="6" y2="57.0293"/><clipPath id="g"><path d="m2.3999 6h59.3346v51.2h-59.3346z"/></clipPath><g clip-path="url(#g)"><path d="m35.7783 38.7674c0 2.1684-1.8772 3.5234-3.5399 3.5234s-3.6574-.6737-3.6574-3.5234v-1.3859h-2.1904v1.3859c0 3.1559 2.6244 5.7227 5.8478 5.7227 3.2235 0 5.8478-2.5668 5.8478-5.7227v-1.3859h-2.3079z" fill="url(#b)"/><path d="m17.3823 32.0748c0-2.0706 1.7959-3.7546 4.0023-3.7546 2.205 0 4.0008 1.6854 4.0008 3.7546h2.521c0-3.3762-2.9241-6.1218-6.5218-6.1218-3.5976 0-6.5233 2.7456-6.5233 6.1218z" fill="url(#c)"/><path d="m38.1563 32.0748c0-2.0706 1.7958-3.7546 4.0008-3.7546 2.2064 0 4.0023 1.6854 4.0023 3.7546h2.521c0-3.3762-2.9257-6.1218-6.5233-6.1218-3.5977 0-6.5218 2.7456-6.5218 6.1218z" fill="url(#d)"/><g clip-rule="evenodd" fill-rule="evenodd"><path d="m52.7485 24.0437v-8.1372c0-2.7423-.3334-4.6449-1.0001-5.7081-.6668-1.06308-2.055-1.88276-4.1647-2.45903-.6368-.17884-.9553-.46697-.9553-.86439 0-.53653.7165-.80479 2.1495-.80479h2.1793c2.3685 0 4.1647.73523 5.3887 2.20571s1.836 3.6165 1.836 6.4383v8.5844c0 1.9871.2139 3.5172.6418 4.5902.428 1.0731 1.2191 2.0765 2.3734 3.0105.3384.2782.5075.5067.5075.6856 0 .1788-.1691.4073-.5075.6855-1.1742.9538-1.9703 1.9623-2.3883 3.0254-.4179 1.0631-.6269 2.5882-.6269 4.5754v8.5545c0 2.8416-.617 4.9976-1.851 6.4681-1.2339 1.4705-3.0251 2.2057-5.3737 2.2057h-2.1793c-.9354 0-1.5275-.0447-1.7763-.1341s-.3732-.313-.3732-.6707c0-.4967.3284-.8246.9852-.9836l1.1942-.2682c2.6271-.5962 3.9407-3.1894 3.9407-7.7796v-8.1373c0-3.0801.7463-5.2559 2.239-6.5277l.5672-.4769c.2787-.2385.418-.4173.418-.5365 0-.1391-.1393-.318-.418-.5366l-.5672-.4769c-1.4927-1.2717-2.239-3.4476-2.239-6.5277z" fill="url(#e)"/><path d="m11.356 23.9735v-8.1372c0-2.7423.3334-4.6449 1.0001-5.7081.6668-1.06307 2.055-1.88275 4.1646-2.45902.6369-.17884.9554-.46697.9554-.86439 0-.53653-.7165-.80479-2.1495-.80479h-2.1793c-2.3685 0-4.16465.73523-5.38867 2.20571s-1.83601 3.61659-1.83601 6.43829v8.5844c0 1.9871-.21396 3.5172-.64186 4.5902-.42791 1.0731-1.21903 2.0766-2.37339 3.0105-.33834.2782-.50751.5067-.50751.6856 0 .1788.16917.4073.50751.6855 1.17426.9538 1.97036 1.9623 2.38831 3.0254.41796 1.0631.62694 2.5882.62694 4.5754v8.5545c0 2.8416.61697 4.9976 1.85094 6.4681s3.02514 2.2057 5.37374 2.2057h2.1793c.9354 0 1.5275-.0447 1.7763-.1341s.3732-.313.3732-.6706c0-.4968-.3284-.8247-.9852-.9837l-1.1942-.2682c-2.6271-.5962-3.9407-3.1893-3.9407-7.7796v-8.1373c0-3.0801-.7463-5.2559-2.23902-6.5277l-.56722-.4769c-.27864-.2385-.41796-.4173-.41796-.5365 0-.1391.13932-.318.41796-.5366l.56722-.4769c1.49272-1.2717 2.23902-3.4476 2.23902-6.5277z" fill="url(#f)"/></g></g></svg>