<svg fill="none" viewBox="0 0 16 17" xmlns="http://www.w3.org/2000/svg"><path clip-rule="evenodd" d="m6.01762 16.0907c0-.1949-.00688-.7106-.01081-1.3954-2.22523.4955-2.69474-1.0998-2.69474-1.0998-.36391-.9477-.88842-1.2-.88842-1.2-.72636-.5091.055-.4985.055-.4985.80297.0579 1.22533.8455 1.22533.8455.71359 1.2533 1.87213.8918 2.32837.6818.07269-.5302.27945-.8918.50781-1.0967-1.77636-.207-3.64406-.911-3.64406-4.05418 0-.89533.31186-1.6275.8236-2.20105-.08202-.20747-.35704-1.04136.07857-2.17084 0 0 .67185-.22056 2.1997.84094.63796-.18178 1.32257-.27343 2.00326-.27645.67921.00302 1.36333.09467 2.00277.27645 1.5269-1.0615 2.1977-.84094 2.1977-.84094.4366 1.12898.1621 1.96287.0796 2.17084.5127.57355.8221 1.30572.8221 2.20105 0 3.15128-1.8706 3.84468-3.6529 4.04758.2878.2533.54318.7538.54318 1.5193 0 1.0967-.01032 1.9815-.01032 2.2504 0 .2195.14444.4743.55054.3942 3.176-1.0866 5.4661-4.1594 5.4661-7.78195 0-4.5305-3.5822-8.20295-8.00025-8.20295-4.41757 0-7.99975 3.67245-7.99975 8.20295.00049111 3.62365 2.29252 6.69835 5.4715 7.78295.39977.0751.54612-.1782.54612-.3952z" fill="#000" fill-rule="evenodd"/></svg>