<svg fill="none" viewBox="0 0 16 17" xmlns="http://www.w3.org/2000/svg"><path clip-rule="evenodd" d="m13.4734 2.93252c-.5987-.66179-1.4518-1.08344-2.396-1.09872-1.81276-.02934-3.2826 1.45994-3.2826 3.32626 0 .26487.02904.52317.08504.77112-2.72816-.17204-5.14696-1.55321-6.76592-3.63516-.28256.49888-.44448 1.08196-.44448 1.70657 0 1.18245.57952 2.23185 1.46032 2.85147-.53808-.0231-1.04424-.18146-1.4868-.44126-.00032.0142-.00032.0284-.00032.04285 0 1.65129 1.13152 3.03658 2.6332 3.35929-.27544.07588-.56544.11559-.8648.11366-.21152-.00136-.4172-.02417-.6176-.06512.41768 1.35422 1.62992 2.34242 3.0664 2.37512-1.12344.9066-2.5388 1.4466-4.0768 1.4435-.26496-.0005-.52624-.0172-.78304-.0492 1.45272.9691 3.17816 1.5333 5.03192 1.5338 6.03788.0015 9.33968-5.1069 9.33968-9.53784 0-.14538-.0033-.28998-.0095-.43388.6413-.46462 1.1978-1.04715 1.6379-1.71235-.5886.25797-1.2214.42931-1.8853.50118.6777-.40549 1.1983-1.05446 1.4433-1.8327-.6343.37398-1.3368.64218-2.0846.78141z" fill="#000" fill-rule="evenodd"/></svg>