<svg fill="none" height="24" viewBox="0 0 24 24" width="24" xmlns="http://www.w3.org/2000/svg"><g stroke="#000" stroke-linecap="round" stroke-linejoin="round" stroke-width="1.5"><path d="m15 17.25v2.25c0 .8284-.6716 1.5-1.5 1.5h-3c-.82843 0-1.5-.6716-1.5-1.5v-2.25"/><path d="m12 .75v1.5"/><path d="m1.5 11.25h1.5"/><path d="m3.75 3.75 1.1 1.057"/><path d="m22.5 11.25h-1.5"/><path d="m20.25 3.75-1.1 1.057"/><path clip-rule="evenodd" d="m8.91501 17.25h6.16999c2.2739-1.1287 3.6989-3.4616 3.665-6-.0656-3.70039-3.0496-6.68435-6.75-6.75-3.7019.06572-6.68647 3.05205-6.74999 6.754-.03239 2.537 1.39239 4.8679 3.665 5.996z" fill-rule="evenodd"/><path d="m12 21v2.25"/><path d="m12 13.5v3.75"/><path d="m9.75 11.25 2.25 2.25 2.25-2.25"/></g></svg>