<svg fill="none" height="18" viewBox="0 0 18 18" width="18" xmlns="http://www.w3.org/2000/svg"><g style="fill-rule:evenodd;clip-rule:evenodd;stroke:#000;stroke-width:1.5;stroke-linecap:round;stroke-linejoin:round"><path d="m8.03067 2.62535c.2474.27463.59969.43143.96933.43143s.72193-.1568.96933-.43143l.63067-.692c.3704-.4099.9586-.54243 1.469-.33095.5103.21148.8324.72122.8043 1.27295l-.0473.93333c-.0185.36819.1195.72703.38.98789s.6191.39942.9873.38145l.9334-.04734c.5513-.02718 1.0602.29524 1.2712.80538.2109.51014.0783 1.09781-.3312 1.46796l-.6947.62666c-.2743.24775-.4308.60006-.4308.96967 0 .3696.1565.72192.4308.96967l.6947.62668c.4099.3704.5424.9586.3309 1.469-.2115.5103-.7212.8324-1.2729.8043l-.9334-.0473c-.369-.019-.7288.1193-.99.3806-.2613.2613-.3996.621-.3806.99l.0473.9334c.0245.5488-.2972 1.0543-.8047 1.2646s-1.0923.0806-1.4633-.3246l-.62733-.694c-.24763-.2743-.59984-.4308-.96934-.4308s-.72171.1565-.96933.4308l-.63.694c-.3704.4071-.9563.5383-1.46497.3281-.50867-.2103-.8309-.7169-.8057-1.2668l.048-.9333c.01898-.369-.11932-.7288-.3806-.9901s-.62105-.3996-.99006-.3806l-.93334.0473c-.55151.0288-1.06146-.2926-1.27341-.8025-.21195-.51-.08003-1.0982.32941-1.4688l.694-.62665c.27428-.24775.43081-.60006.43081-.96967 0-.3696-.15653-.72192-.43081-.96966l-.694-.63c-.40807-.37017-.53979-.9567-.32918-1.46581s.71819-.83116 1.26852-.80486l.93333.04733c.36973.01944.73032-.11904.99199-.38097.26167-.26192.39981-.62265.38001-.99236l-.04467-.934c-.0258-.55009.29621-1.05725.80503-1.26789s1.09508-.07948 1.46564.32789z"/><path d="m9 12.0007c1.6569 0 3-1.3432 3-3.00003 0-1.65685-1.3431-3-3-3-1.65685 0-3 1.34315-3 3 0 1.65683 1.34315 3.00003 3 3.00003z"/></g></svg>