<svg fill="none" height="24" viewBox="0 0 24 24" width="24" xmlns="http://www.w3.org/2000/svg" xmlns:xlink="http://www.w3.org/1999/xlink"><linearGradient id="a" gradientUnits="userSpaceOnUse" x1="12" x2="12" y1="1" y2="23"><stop offset="0" stop-color="#0057b8"/><stop offset=".494792" stop-color="#0057b8"/><stop offset=".494892" stop-color="#ffd700"/><stop offset="1" stop-color="#ffd700"/></linearGradient><path d="m12.001 23-10.22834-11.1788c-.898098-.9407-1.490908-2.15353-1.6944422-3.46678-.2035348-1.31325-.007473-2.6603.5604082-3.85032.428974-.89845 1.055584-1.67727 1.828184-2.27227.77261-.595 1.66911-.98915 2.61564-1.14999.94652-.160841 1.91598-.083755 2.82849.2249.91251.30866 1.74196.84005 2.41996 1.5504l1.6701 1.74964 1.6701-1.74964c.6778-.71036 1.5071-1.24177 2.4195-1.55044.9123-.308663 1.8817-.385749 2.828-.2249.9464.16085 1.8428.55503 2.6152 1.15004.7724.59502 1.3988 1.37384 1.8276 2.27226.5679 1.19002.7639 2.53707.5604 3.85032-.2036 1.31325-.7964 2.52608-1.6945 3.46678z" fill="url(#a)"/></svg>